<svg width="507" height="129" viewBox="0 0 507 129" fill="none" xmlns="http://www.w3.org/2000/svg">
<path d="M13.0536 4.41467H27.6064L19.6929 41.3667H33.3068L32.1667 47H4L13.0536 4.41467ZM49.7284 33.5202C49.5496 34.5038 49.4154 35.4427 49.326 36.3369C49.2813 37.2311 49.259 38.0358 49.259 38.7512C49.259 39.1536 49.2813 39.6007 49.326 40.0925C49.3707 40.5843 49.4602 41.0537 49.5943 41.5008C49.7731 41.9032 49.9967 42.2608 50.2649 42.5738C50.5779 42.8421 51.0026 42.9762 51.5391 42.9762C51.9415 42.9762 52.3886 42.8421 52.8804 42.5738C53.4169 42.3056 53.9311 41.9255 54.4229 41.4337C54.9594 40.9419 55.4512 40.3384 55.8982 39.623C56.39 38.9077 56.7701 38.1029 57.0383 37.2087H68.0367L66.2931 44.3845C65.3989 44.9657 64.3706 45.4575 63.2082 45.8599C62.0457 46.2623 60.8162 46.5976 59.5197 46.8659C58.2231 47.0894 56.9042 47.2459 55.5629 47.3353C54.2217 47.4694 52.9475 47.5365 51.7403 47.5365C49.5049 47.5365 47.4259 47.3353 45.5034 46.9329C43.5809 46.5306 41.9043 45.8376 40.4736 44.854C39.043 43.8704 37.9029 42.5738 37.0534 40.9643C36.2486 39.3101 35.8463 37.2758 35.8463 34.8615C35.8463 32.6708 36.1816 30.5247 36.8522 28.4234C37.5676 26.3221 38.73 24.4667 40.3395 22.8571C41.9937 21.2029 44.1845 19.884 46.9117 18.9004C49.6837 17.9168 53.1263 17.425 57.2395 17.425C61.7104 17.425 65.0636 18.118 67.299 19.504C69.5792 20.8899 70.7193 23.0583 70.7193 26.0091C70.7193 27.2163 70.5404 28.5352 70.1828 29.9659C69.8251 31.3518 69.2886 32.5366 68.5733 33.5202H49.7284ZM58.6479 25.5397C58.6479 24.1537 58.4243 23.2148 57.9772 22.723C57.5301 22.2312 56.9936 21.9853 56.3677 21.9853C55.6523 21.9853 54.9817 22.2312 54.3558 22.723C53.7746 23.1701 53.2381 23.796 52.7463 24.6008C52.2545 25.3608 51.8074 26.255 51.405 27.2833C51.0026 28.2669 50.6673 29.3176 50.399 30.4353H58.0443C58.1337 29.8988 58.2231 29.3399 58.3125 28.7587C58.402 28.2669 58.469 27.7304 58.5137 27.1492C58.6031 26.568 58.6479 26.0315 58.6479 25.5397ZM76.6125 20.644C78.8926 19.5263 81.2175 18.7216 83.5871 18.2298C86.0014 17.6932 88.6839 17.425 91.6347 17.425C94.4961 17.425 96.8657 17.6485 98.7434 18.0956C100.621 18.5427 102.119 19.191 103.237 20.0405C104.354 20.8899 105.137 21.8959 105.584 23.0583C106.031 24.2208 106.255 25.5397 106.255 27.0151C106.255 27.8645 106.187 28.7811 106.053 29.7647C105.964 30.7483 105.852 31.5754 105.718 32.246L102.566 47H91.7688L90.5617 42.7079H90.1593C88.7286 44.2728 87.052 45.4799 85.1296 46.3294C83.2518 47.1341 81.374 47.5365 79.4962 47.5365C78.4232 47.5365 77.3725 47.38 76.3442 47.0671C75.3159 46.7541 74.3994 46.2847 73.5946 45.6587C72.7899 44.9881 72.1416 44.161 71.6498 43.1774C71.158 42.1491 70.9121 40.9196 70.9121 39.4889C70.9121 37.164 71.538 35.3309 72.7899 33.9897C74.0864 32.6037 75.763 31.5754 77.8196 30.9048C79.921 30.1894 82.2682 29.7423 84.8613 29.5635C87.4991 29.3847 90.137 29.2952 92.7748 29.2952C92.8642 28.8481 92.976 28.2222 93.1101 27.4175C93.2442 26.568 93.3113 25.8303 93.3113 25.2044C93.3113 24.3996 93.0878 23.6619 92.6407 22.9913C92.2383 22.2759 91.3665 21.9182 90.0252 21.9182C88.4604 21.9182 87.2979 22.3877 86.5379 23.3266C85.8225 24.2208 85.3531 25.3161 85.1296 26.6127H75.3383L76.6125 20.644ZM92.0371 32.4472H90.8299C89.5334 32.4472 88.4157 32.6261 87.4768 32.9837C86.5826 33.2967 85.8449 33.7214 85.2637 34.2579C84.7272 34.7944 84.3248 35.398 84.0565 36.0686C83.7883 36.7393 83.6542 37.4099 83.6542 38.0806C83.6542 39.1536 83.9224 39.9583 84.4589 40.4948C85.0401 41.0313 85.7108 41.2996 86.4708 41.2996C87.4097 41.2996 88.3262 40.9643 89.2204 40.2936C90.1593 39.623 90.7405 38.7288 90.9641 37.6111L92.0371 32.4472ZM114.219 18.1627H125.15L126.156 23.1925H126.626C127.654 21.5829 128.973 20.2193 130.582 19.1016C132.192 17.9839 134.316 17.425 136.953 17.425C137.132 17.425 137.4 17.4473 137.758 17.4921C138.161 17.4921 138.585 17.5591 139.032 17.6932C139.524 17.7827 140.016 17.9391 140.508 18.1627C141.044 18.3415 141.558 18.6098 142.05 18.9675L139.099 32.7825H131.79C131.7 30.0106 131.454 28.0881 131.052 27.0151C130.649 25.8973 130.001 25.3385 129.107 25.3385C128.66 25.3385 128.168 25.4503 127.632 25.6738C127.14 25.8526 126.626 26.2774 126.089 26.948L121.797 47H108.116L114.219 18.1627ZM159.178 22.4548C160.117 21.5606 161.168 20.7335 162.33 19.9734C163.358 19.3475 164.566 18.7663 165.952 18.2298C167.338 17.6932 168.88 17.425 170.579 17.425C172.904 17.425 174.826 18.0286 176.346 19.2357C177.867 20.3981 178.627 22.0077 178.627 24.0643C178.627 24.6455 178.559 25.3608 178.425 26.2103C178.291 27.0151 178.135 27.8645 177.956 28.7587C177.777 29.6529 177.576 30.5694 177.352 31.5083C177.174 32.4025 177.017 33.2073 176.883 33.9226L174.066 47H160.452L164.141 29.4964C164.23 28.9152 164.342 28.334 164.476 27.7528C164.61 27.1268 164.677 26.568 164.677 26.0762C164.677 25.4055 164.499 24.869 164.141 24.4667C163.828 24.0196 163.336 23.796 162.665 23.796C161.861 23.796 161.078 24.0866 160.318 24.6679C159.603 25.2491 159.044 25.7409 158.642 26.1432L154.215 47H140.534L146.637 18.1627H157.569L158.776 22.4548H159.178ZM195.31 18.1627H200.474L201.077 15.4131C201.658 12.7305 202.508 10.4727 203.626 8.63967C204.743 6.76189 206.062 5.24179 207.582 4.07935C209.147 2.91692 210.913 2.0898 212.88 1.598C214.847 1.0615 216.949 0.793243 219.184 0.793243C220.57 0.793243 222.046 0.88266 223.61 1.06149C225.175 1.24033 226.807 1.53094 228.506 1.93332L227.433 7.2984C226.449 7.16428 225.399 7.07486 224.281 7.03015C223.163 6.94073 222.269 6.89602 221.599 6.89602C220.704 6.89602 219.922 6.96308 219.251 7.09721C218.625 7.23134 218.067 7.49959 217.575 7.90198C217.083 8.25965 216.658 8.7738 216.301 9.44444C215.943 10.1151 215.652 11.0092 215.429 12.127L214.154 18.1627H221.196L220.324 22.6559H213.216L208.052 47H194.371L199.535 22.6559H194.304L195.31 18.1627ZM224.703 18.1627H235.635L236.641 23.1925H237.11C238.138 21.5829 239.457 20.2193 241.067 19.1016C242.676 17.9839 244.8 17.425 247.438 17.425C247.617 17.425 247.885 17.4473 248.243 17.4921C248.645 17.4921 249.07 17.5591 249.517 17.6932C250.009 17.7827 250.5 17.9391 250.992 18.1627C251.529 18.3415 252.043 18.6098 252.535 18.9675L249.584 32.7825H242.274C242.185 30.0106 241.939 28.0881 241.536 27.0151C241.134 25.8973 240.486 25.3385 239.591 25.3385C239.144 25.3385 238.653 25.4503 238.116 25.6738C237.624 25.8526 237.11 26.2774 236.574 26.948L232.282 47H218.601L224.703 18.1627ZM272.815 17.425C278.135 17.425 282.002 18.3639 284.417 20.2417C286.965 22.2089 288.239 25.4726 288.239 30.0329C288.239 32.8496 287.77 35.398 286.831 37.6782C285.892 39.9136 284.573 41.769 282.874 43.2444C279.476 46.1058 274.558 47.5365 268.12 47.5365C262.621 47.5365 258.687 46.4858 256.317 44.3845C253.769 42.1938 252.494 38.9077 252.494 34.5262C252.494 31.6201 253.076 28.9823 254.238 26.6127C255.445 24.2431 257.166 22.2759 259.402 20.7111C262.666 18.5204 267.137 17.425 272.815 17.425ZM268.254 42.9762C269.372 42.9762 270.333 42.3503 271.138 41.0984C271.988 39.8466 272.658 38.3265 273.15 36.5381C273.642 34.705 273.999 32.8272 274.223 30.9048C274.491 28.9376 274.625 27.2386 274.625 25.8079C274.625 24.5561 274.491 23.6172 274.223 22.9913C273.999 22.3206 273.485 21.9853 272.681 21.9853C271.473 21.9853 270.423 22.6336 269.529 23.9302C268.679 25.2267 267.986 26.7692 267.45 28.5575C266.913 30.3459 266.511 32.179 266.242 34.0567C266.019 35.9345 265.907 37.4546 265.907 38.6171C265.907 41.5231 266.69 42.9762 268.254 42.9762ZM308.237 22.4548C309.176 21.5606 310.227 20.7335 311.389 19.9734C312.418 19.3475 313.647 18.7663 315.078 18.2298C316.508 17.6932 318.118 17.425 319.906 17.425C322.052 17.425 323.64 17.9168 324.668 18.9004C325.741 19.884 326.344 21.0911 326.479 22.5218H326.881C327.909 21.5829 329.027 20.7335 330.234 19.9734C331.262 19.3475 332.47 18.7663 333.856 18.2298C335.242 17.6932 336.717 17.425 338.282 17.425C340.607 17.425 342.484 18.0733 343.915 19.3698C345.39 20.6217 346.128 22.2536 346.128 24.2655C346.128 25.2938 345.949 26.6574 345.592 28.3563C345.234 30.0553 344.832 31.9107 344.385 33.9226L341.568 47H328.356L331.978 29.4964C332.112 28.8258 332.246 28.1775 332.38 27.5516C332.514 26.9257 332.581 26.4115 332.581 26.0091C332.581 25.3832 332.402 24.869 332.045 24.4667C331.687 24.0196 331.173 23.796 330.502 23.796C329.653 23.796 328.848 24.109 328.088 24.7349C327.373 25.3161 326.814 25.8079 326.411 26.2103L322.052 47H309.511L313.2 29.4964C313.289 28.9152 313.401 28.334 313.535 27.7528C313.669 27.1268 313.736 26.568 313.736 26.0762C313.736 25.4055 313.558 24.869 313.2 24.4667C312.887 24.0196 312.395 23.796 311.725 23.796C310.92 23.796 310.137 24.0866 309.377 24.6679C308.662 25.2491 308.103 25.7409 307.701 26.1432L303.275 47H289.594L295.696 18.1627H306.628L307.835 22.4548H308.237ZM362.705 18.1627C364.359 17.805 365.812 17.4026 367.064 16.9555C368.316 16.5085 369.456 15.9496 370.484 15.279C371.557 14.6083 372.563 13.7812 373.502 12.7976C374.486 11.814 375.536 10.6069 376.654 9.17618H383.562L381.617 18.1627H386.848L385.976 22.6559H380.678L377.928 35.7333C377.705 36.7616 377.526 37.6782 377.392 38.4829C377.258 39.2877 377.191 39.9136 377.191 40.3607C377.191 41.2549 377.504 41.8138 378.129 42.0373C378.8 42.2608 380.03 42.3726 381.818 42.3726L380.812 47C380.499 47.0894 380.007 47.1565 379.337 47.2012C378.711 47.2459 377.995 47.2906 377.191 47.3353C376.431 47.4247 375.626 47.4694 374.776 47.4694C373.972 47.5142 373.256 47.5365 372.63 47.5365C371.513 47.5365 370.417 47.4471 369.344 47.2683C368.271 47.1341 367.31 46.8435 366.46 46.3964C365.611 45.9046 364.918 45.2116 364.381 44.3175C363.89 43.4233 363.644 42.2161 363.644 40.696C363.644 40.1595 363.666 39.4889 363.711 38.6841C363.8 37.8794 363.957 36.9852 364.18 36.0016L366.997 22.6559H361.766L362.705 18.1627ZM404.123 22.4548H404.593C405.442 21.6053 406.426 20.8229 407.544 20.1075C408.483 19.4816 409.6 18.9227 410.897 18.4309C412.193 17.9391 413.646 17.6932 415.256 17.6932C417.581 17.6932 419.503 18.2968 421.023 19.504C422.544 20.6664 423.304 22.2759 423.304 24.3325C423.304 24.9585 423.237 25.6738 423.102 26.4786C422.968 27.2386 422.812 28.0657 422.633 28.9599C422.454 29.8094 422.253 30.6812 422.029 31.5754C421.851 32.4249 421.694 33.2073 421.56 33.9226L418.743 47H405.129L408.818 29.4964C408.907 28.9152 409.019 28.334 409.153 27.7528C409.287 27.1268 409.354 26.568 409.354 26.0762C409.354 25.4055 409.176 24.869 408.818 24.4667C408.505 24.0196 408.013 23.796 407.342 23.796C406.538 23.796 405.755 24.0866 404.995 24.6679C404.28 25.2491 403.721 25.7632 403.319 26.2103L398.892 47H385.212L394.735 1.93332H408.483L404.123 22.4548ZM439.797 33.5202C439.618 34.5038 439.484 35.4427 439.395 36.3369C439.35 37.2311 439.328 38.0358 439.328 38.7512C439.328 39.1536 439.35 39.6007 439.395 40.0925C439.439 40.5843 439.529 41.0537 439.663 41.5008C439.842 41.9032 440.065 42.2608 440.334 42.5738C440.646 42.8421 441.071 42.9762 441.608 42.9762C442.01 42.9762 442.457 42.8421 442.949 42.5738C443.485 42.3056 444 41.9255 444.491 41.4337C445.028 40.9419 445.52 40.3384 445.967 39.623C446.459 38.9077 446.839 38.1029 447.107 37.2087H458.105L456.362 44.3845C455.468 44.9657 454.439 45.4575 453.277 45.8599C452.114 46.2623 450.885 46.5976 449.588 46.8659C448.292 47.0894 446.973 47.2459 445.632 47.3353C444.29 47.4694 443.016 47.5365 441.809 47.5365C439.573 47.5365 437.494 47.3353 435.572 46.9329C433.65 46.5306 431.973 45.8376 430.542 44.854C429.112 43.8704 427.971 42.5738 427.122 40.9643C426.317 39.3101 425.915 37.2758 425.915 34.8615C425.915 32.6708 426.25 30.5247 426.921 28.4234C427.636 26.3221 428.799 24.4667 430.408 22.8571C432.062 21.2029 434.253 19.884 436.98 18.9004C439.752 17.9168 443.195 17.425 447.308 17.425C451.779 17.425 455.132 18.118 457.368 19.504C459.648 20.8899 460.788 23.0583 460.788 26.0091C460.788 27.2163 460.609 28.5352 460.251 29.9659C459.894 31.3518 459.357 32.5366 458.642 33.5202H439.797ZM448.716 25.5397C448.716 24.1537 448.493 23.2148 448.046 22.723C447.599 22.2312 447.062 21.9853 446.436 21.9853C445.721 21.9853 445.05 22.2312 444.424 22.723C443.843 23.1701 443.307 23.796 442.815 24.6008C442.323 25.3608 441.876 26.255 441.474 27.2833C441.071 28.2669 440.736 29.3176 440.468 30.4353H448.113C448.202 29.8988 448.292 29.3399 448.381 28.7587C448.471 28.2669 448.538 27.7304 448.582 27.1492C448.672 26.568 448.716 26.0315 448.716 25.5397ZM14.596 128.267H0.915078L9.36508 88.1627H20.2964L21.5036 92.4548H21.906C23.5155 90.7558 25.3038 89.5487 27.271 88.8333C29.2829 88.0733 31.2501 87.6932 33.1726 87.6932C34.7374 87.6932 36.034 87.9391 37.0623 88.4309C38.1353 88.878 38.9848 89.504 39.6107 90.3087C40.2366 91.1135 40.6837 92.0747 40.952 93.1925C41.2202 94.3102 41.3544 95.495 41.3544 96.7468C41.3544 97.3727 41.3097 98.3116 41.2202 99.5635C41.1308 100.815 40.9296 102.224 40.6167 103.788C40.3037 105.309 39.8566 106.896 39.2754 108.55C38.6942 110.16 37.9118 111.635 36.9282 112.976C35.9893 114.317 34.7822 115.413 33.3068 116.262C31.8761 117.112 30.1548 117.537 28.1429 117.537C27.0251 117.537 25.9298 117.402 24.8568 117.134C23.8284 116.866 22.8896 116.508 22.0401 116.061C21.1906 115.614 20.4306 115.1 19.7599 114.519C19.134 113.893 18.6646 113.267 18.3516 112.641H17.9492L14.596 128.267ZM21.7048 111.031C22.7778 111.031 23.672 110.472 24.3873 109.355C25.1027 108.192 25.6839 106.851 26.131 105.331C26.578 103.766 26.891 102.224 27.0698 100.704C27.2934 99.1388 27.4052 97.9763 27.4052 97.2163C27.4052 96.3221 27.2487 95.5844 26.9357 95.0032C26.6675 94.422 26.1533 94.1313 25.3933 94.1313C24.5438 94.1313 23.739 94.4443 22.979 95.0702C22.2189 95.6514 21.6601 96.1656 21.3024 96.6127L18.6869 108.885C19.0446 109.377 19.4693 109.869 19.9611 110.361C20.4529 110.808 21.0341 111.031 21.7048 111.031ZM57.7839 103.52C57.605 104.504 57.4709 105.443 57.3815 106.337C57.3368 107.231 57.3144 108.036 57.3144 108.751C57.3144 109.154 57.3368 109.601 57.3815 110.092C57.4262 110.584 57.5156 111.054 57.6498 111.501C57.8286 111.903 58.0521 112.261 58.3204 112.574C58.6334 112.842 59.0581 112.976 59.5946 112.976C59.997 112.976 60.4441 112.842 60.9359 112.574C61.4724 112.306 61.9865 111.926 62.4783 111.434C63.0148 110.942 63.5066 110.338 63.9537 109.623C64.4455 108.908 64.8256 108.103 65.0938 107.209H76.0922L74.3486 114.385C73.4544 114.966 72.4261 115.458 71.2637 115.86C70.1012 116.262 68.8717 116.598 67.5752 116.866C66.2786 117.089 64.9597 117.246 63.6184 117.335C62.2771 117.469 61.0029 117.537 59.7958 117.537C57.5603 117.537 55.4814 117.335 53.5589 116.933C51.6364 116.531 49.9598 115.838 48.5291 114.854C47.0984 113.87 45.9584 112.574 45.1089 110.964C44.3041 109.31 43.9017 107.276 43.9017 104.862C43.9017 102.671 44.2371 100.525 44.9077 98.4234C45.623 96.3221 46.7855 94.4667 48.395 92.8571C50.0492 91.2029 52.24 89.884 54.9672 88.9004C57.7392 87.9168 61.1818 87.425 65.295 87.425C69.7659 87.425 73.1191 88.118 75.3545 89.504C77.6347 90.8899 78.7748 93.0583 78.7748 96.0091C78.7748 97.2163 78.5959 98.5352 78.2383 99.9659C77.8806 101.352 77.3441 102.537 76.6287 103.52H57.7839ZM66.7033 95.5397C66.7033 94.1537 66.4798 93.2148 66.0327 92.723C65.5856 92.2312 65.0491 91.9853 64.4232 91.9853C63.7078 91.9853 63.0372 92.2312 62.4113 92.723C61.83 93.1701 61.2935 93.796 60.8017 94.6008C60.3099 95.3608 59.8629 96.255 59.4605 97.2833C59.0581 98.2669 58.7228 99.3176 58.4545 100.435H66.0998C66.1892 99.8988 66.2786 99.3399 66.368 98.7587C66.4574 98.2669 66.5245 97.7304 66.5692 97.1492C66.6586 96.568 66.7033 96.0315 66.7033 95.5397ZM100.964 87.425C106.285 87.425 110.152 88.3639 112.566 90.2417C115.115 92.2089 116.389 95.4726 116.389 100.033C116.389 102.85 115.92 105.398 114.981 107.678C114.042 109.914 112.723 111.769 111.024 113.244C107.626 116.106 102.708 117.537 96.27 117.537C90.7707 117.537 86.8364 116.486 84.4668 114.385C81.9184 112.194 80.6442 108.908 80.6442 104.526C80.6442 101.62 81.2254 98.9823 82.3878 96.6127C83.595 94.2431 85.3162 92.2759 87.5517 90.7111C90.8155 88.5204 95.2864 87.425 100.964 87.425ZM96.4041 112.976C97.5218 112.976 98.483 112.35 99.2878 111.098C100.137 109.847 100.808 108.326 101.3 106.538C101.792 104.705 102.149 102.827 102.373 100.905C102.641 98.9376 102.775 97.2386 102.775 95.8079C102.775 94.5561 102.641 93.6172 102.373 92.9913C102.149 92.3206 101.635 91.9853 100.83 91.9853C99.6231 91.9853 98.5725 92.6336 97.6783 93.9302C96.8288 95.2267 96.1358 96.7692 95.5993 98.5575C95.0628 100.346 94.6604 102.179 94.3922 104.057C94.1686 105.935 94.0569 107.455 94.0569 108.617C94.0569 111.523 94.8393 112.976 96.4041 112.976ZM129.01 128.267H115.329L123.779 88.1627H134.71L135.918 92.4548H136.32C137.929 90.7558 139.718 89.5487 141.685 88.8333C143.697 88.0733 145.664 87.6932 147.587 87.6932C149.151 87.6932 150.448 87.9391 151.476 88.4309C152.549 88.878 153.399 89.504 154.025 90.3087C154.651 91.1135 155.098 92.0747 155.366 93.1925C155.634 94.3102 155.768 95.495 155.768 96.7468C155.768 97.3727 155.724 98.3116 155.634 99.5635C155.545 100.815 155.344 102.224 155.031 103.788C154.718 105.309 154.271 106.896 153.689 108.55C153.108 110.16 152.326 111.635 151.342 112.976C150.403 114.317 149.196 115.413 147.721 116.262C146.29 117.112 144.569 117.537 142.557 117.537C141.439 117.537 140.344 117.402 139.271 117.134C138.242 116.866 137.304 116.508 136.454 116.061C135.605 115.614 134.845 115.1 134.174 114.519C133.548 113.893 133.079 113.267 132.766 112.641H132.363L129.01 128.267ZM136.119 111.031C137.192 111.031 138.086 110.472 138.801 109.355C139.517 108.192 140.098 106.851 140.545 105.331C140.992 103.766 141.305 102.224 141.484 100.704C141.707 99.1388 141.819 97.9763 141.819 97.2163C141.819 96.3221 141.663 95.5844 141.35 95.0032C141.081 94.422 140.567 94.1313 139.807 94.1313C138.958 94.1313 138.153 94.4443 137.393 95.0702C136.633 95.6514 136.074 96.1656 135.716 96.6127L133.101 108.885C133.459 109.377 133.883 109.869 134.375 110.361C134.867 110.808 135.448 111.031 136.119 111.031ZM170.588 117H156.907L166.43 71.9333H180.178L170.588 117ZM191.845 103.52C191.667 104.504 191.532 105.443 191.443 106.337C191.398 107.231 191.376 108.036 191.376 108.751C191.376 109.154 191.398 109.601 191.443 110.092C191.488 110.584 191.577 111.054 191.711 111.501C191.89 111.903 192.114 112.261 192.382 112.574C192.695 112.842 193.12 112.976 193.656 112.976C194.058 112.976 194.506 112.842 194.997 112.574C195.534 112.306 196.048 111.926 196.54 111.434C197.076 110.942 197.568 110.338 198.015 109.623C198.507 108.908 198.887 108.103 199.155 107.209H210.154L208.41 114.385C207.516 114.966 206.488 115.458 205.325 115.86C204.163 116.262 202.933 116.598 201.637 116.866C200.34 117.089 199.021 117.246 197.68 117.335C196.339 117.469 195.064 117.537 193.857 117.537C191.622 117.537 189.543 117.335 187.62 116.933C185.698 116.531 184.021 115.838 182.591 114.854C181.16 113.87 180.02 112.574 179.17 110.964C178.366 109.31 177.963 107.276 177.963 104.862C177.963 102.671 178.299 100.525 178.969 98.4234C179.685 96.3221 180.847 94.4667 182.457 92.8571C184.111 91.2029 186.301 89.884 189.029 88.9004C191.801 87.9168 195.243 87.425 199.357 87.425C203.827 87.425 207.181 88.118 209.416 89.504C211.696 90.8899 212.836 93.0583 212.836 96.0091C212.836 97.2163 212.657 98.5352 212.3 99.9659C211.942 101.352 211.406 102.537 210.69 103.52H191.845ZM200.765 95.5397C200.765 94.1537 200.541 93.2148 200.094 92.723C199.647 92.2312 199.111 91.9853 198.485 91.9853C197.769 91.9853 197.099 92.2312 196.473 92.723C195.892 93.1701 195.355 93.796 194.863 94.6008C194.371 95.3608 193.924 96.255 193.522 97.2833C193.12 98.2669 192.784 99.3176 192.516 100.435H200.161C200.251 99.8988 200.34 99.3399 200.43 98.7587C200.519 98.2669 200.586 97.7304 200.631 97.1492C200.72 96.568 200.765 96.0315 200.765 95.5397ZM228.578 88.1627C230.232 87.805 231.685 87.4026 232.937 86.9555C234.189 86.5085 235.329 85.9496 236.357 85.279C237.43 84.6083 238.436 83.7812 239.375 82.7976C240.359 81.814 241.409 80.6069 242.527 79.1762H249.435L247.49 88.1627H252.721L251.849 92.6559H246.551L243.801 105.733C243.578 106.762 243.399 107.678 243.265 108.483C243.131 109.288 243.064 109.914 243.064 110.361C243.064 111.255 243.377 111.814 244.002 112.037C244.673 112.261 245.903 112.373 247.691 112.373L246.685 117C246.372 117.089 245.88 117.156 245.21 117.201C244.584 117.246 243.868 117.291 243.064 117.335C242.304 117.425 241.499 117.469 240.649 117.469C239.845 117.514 239.129 117.537 238.503 117.537C237.386 117.537 236.29 117.447 235.217 117.268C234.144 117.134 233.183 116.844 232.333 116.396C231.484 115.905 230.791 115.212 230.254 114.317C229.763 113.423 229.517 112.216 229.517 110.696C229.517 110.16 229.539 109.489 229.584 108.684C229.673 107.879 229.83 106.985 230.053 106.002L232.87 92.6559H227.639L228.578 88.1627ZM269.996 92.4548H270.466C271.315 91.6053 272.299 90.8229 273.417 90.1075C274.356 89.4816 275.473 88.9227 276.77 88.4309C278.066 87.9391 279.519 87.6932 281.129 87.6932C283.454 87.6932 285.376 88.2968 286.896 89.504C288.417 90.6664 289.177 92.2759 289.177 94.3325C289.177 94.9585 289.11 95.6738 288.975 96.4786C288.841 97.2386 288.685 98.0657 288.506 98.9599C288.327 99.8094 288.126 100.681 287.902 101.575C287.724 102.425 287.567 103.207 287.433 103.923L284.616 117H271.002L274.691 99.4964C274.78 98.9152 274.892 98.334 275.026 97.7528C275.16 97.1268 275.227 96.568 275.227 96.0762C275.227 95.4055 275.049 94.869 274.691 94.4667C274.378 94.0196 273.886 93.796 273.215 93.796C272.411 93.796 271.628 94.0866 270.868 94.6679C270.153 95.2491 269.594 95.7632 269.192 96.2103L264.765 117H251.084L260.608 71.9333H274.356L269.996 92.4548ZM295.879 90.644C298.159 89.5263 300.484 88.7216 302.853 88.2298C305.268 87.6932 307.95 87.425 310.901 87.425C313.762 87.425 316.132 87.6485 318.01 88.0956C319.887 88.5427 321.385 89.191 322.503 90.0405C323.621 90.8899 324.403 91.8959 324.85 93.0583C325.297 94.2208 325.521 95.5397 325.521 97.0151C325.521 97.8645 325.454 98.7811 325.32 99.7647C325.23 100.748 325.118 101.575 324.984 102.246L321.832 117H311.035L309.828 112.708H309.426C307.995 114.273 306.318 115.48 304.396 116.329C302.518 117.134 300.64 117.537 298.762 117.537C297.689 117.537 296.639 117.38 295.61 117.067C294.582 116.754 293.666 116.285 292.861 115.659C292.056 114.988 291.408 114.161 290.916 113.177C290.424 112.149 290.178 110.92 290.178 109.489C290.178 107.164 290.804 105.331 292.056 103.99C293.353 102.604 295.029 101.575 297.086 100.905C299.187 100.189 301.534 99.7423 304.128 99.5635C306.765 99.3847 309.403 99.2952 312.041 99.2952C312.13 98.8481 312.242 98.2222 312.376 97.4175C312.51 96.568 312.578 95.8303 312.578 95.2044C312.578 94.3996 312.354 93.6619 311.907 92.9913C311.505 92.2759 310.633 91.9182 309.291 91.9182C307.727 91.9182 306.564 92.3877 305.804 93.3266C305.089 94.2208 304.619 95.3161 304.396 96.6127H294.605L295.879 90.644ZM311.303 102.447H310.096C308.8 102.447 307.682 102.626 306.743 102.984C305.849 103.297 305.111 103.721 304.53 104.258C303.993 104.794 303.591 105.398 303.323 106.069C303.055 106.739 302.92 107.41 302.92 108.081C302.92 109.154 303.189 109.958 303.725 110.495C304.306 111.031 304.977 111.3 305.737 111.3C306.676 111.3 307.592 110.964 308.487 110.294C309.426 109.623 310.007 108.729 310.23 107.611L311.303 102.447ZM330.09 88.1627C331.744 87.805 333.197 87.4026 334.449 86.9555C335.701 86.5085 336.841 85.9496 337.869 85.279C338.942 84.6083 339.948 83.7812 340.887 82.7976C341.871 81.814 342.922 80.6069 344.039 79.1762H350.947L349.002 88.1627H354.233L353.361 92.6559H348.063L345.313 105.733C345.09 106.762 344.911 107.678 344.777 108.483C344.643 109.288 344.576 109.914 344.576 110.361C344.576 111.255 344.889 111.814 345.515 112.037C346.185 112.261 347.415 112.373 349.203 112.373L348.197 117C347.884 117.089 347.392 117.156 346.722 117.201C346.096 117.246 345.38 117.291 344.576 117.335C343.816 117.425 343.011 117.469 342.161 117.469C341.357 117.514 340.641 117.537 340.015 117.537C338.898 117.537 337.802 117.447 336.729 117.268C335.656 117.134 334.695 116.844 333.846 116.396C332.996 115.905 332.303 115.212 331.767 114.317C331.275 113.423 331.029 112.216 331.029 110.696C331.029 110.16 331.051 109.489 331.096 108.684C331.185 107.879 331.342 106.985 331.565 106.002L334.382 92.6559H329.151L330.09 88.1627ZM395.88 115.39C394.002 116.151 392.013 116.687 389.911 117C387.855 117.358 385.507 117.537 382.87 117.537C380.545 117.537 378.399 117.313 376.431 116.866C374.509 116.374 372.832 115.614 371.402 114.586C369.971 113.557 368.853 112.238 368.048 110.629C367.244 108.975 366.841 106.985 366.841 104.66C366.841 102.246 367.244 100.011 368.048 97.954C368.898 95.8526 370.15 94.0196 371.804 92.4548C373.503 90.8899 375.649 89.6604 378.242 88.7663C380.835 87.8721 383.92 87.425 387.497 87.425C390.403 87.425 392.929 87.6709 395.075 88.1627C397.221 88.6098 398.987 89.6604 400.373 91.3147L398.495 99.8988H389.375C389.419 99.1388 389.464 98.4681 389.509 97.8869C389.554 97.3057 389.576 96.6574 389.576 95.9421C389.576 94.5114 389.419 93.5054 389.106 92.9242C388.793 92.2983 388.279 91.9853 387.564 91.9853C386.312 91.9853 385.217 92.6112 384.278 93.8631C383.339 95.0702 382.557 96.5456 381.931 98.2893C381.349 99.9882 380.902 101.799 380.589 103.721C380.321 105.599 380.187 107.209 380.187 108.55C380.187 109.042 380.209 109.556 380.254 110.092C380.299 110.584 380.388 111.054 380.522 111.501C380.701 111.948 380.925 112.306 381.193 112.574C381.461 112.842 381.841 112.976 382.333 112.976C382.78 112.976 383.294 112.842 383.875 112.574C384.457 112.306 385.016 111.903 385.552 111.367C386.089 110.785 386.603 110.048 387.095 109.154C387.586 108.259 387.966 107.186 388.235 105.935H397.825L395.88 115.39ZM405.905 90.644C408.185 89.5263 410.51 88.7216 412.879 88.2298C415.294 87.6932 417.976 87.425 420.927 87.425C423.788 87.425 426.158 87.6485 428.036 88.0956C429.914 88.5427 431.411 89.191 432.529 90.0405C433.647 90.8899 434.429 91.8959 434.876 93.0583C435.323 94.2208 435.547 95.5397 435.547 97.0151C435.547 97.8645 435.48 98.7811 435.346 99.7647C435.256 100.748 435.144 101.575 435.01 102.246L431.858 117H421.061L419.854 112.708H419.452C418.021 114.273 416.344 115.48 414.422 116.329C412.544 117.134 410.666 117.537 408.789 117.537C407.715 117.537 406.665 117.38 405.637 117.067C404.608 116.754 403.692 116.285 402.887 115.659C402.082 114.988 401.434 114.161 400.942 113.177C400.45 112.149 400.204 110.92 400.204 109.489C400.204 107.164 400.83 105.331 402.082 103.99C403.379 102.604 405.055 101.575 407.112 100.905C409.213 100.189 411.56 99.7423 414.154 99.5635C416.791 99.3847 419.429 99.2952 422.067 99.2952C422.156 98.8481 422.268 98.2222 422.402 97.4175C422.537 96.568 422.604 95.8303 422.604 95.2044C422.604 94.3996 422.38 93.6619 421.933 92.9913C421.531 92.2759 420.659 91.9182 419.317 91.9182C417.753 91.9182 416.59 92.3877 415.83 93.3266C415.115 94.2208 414.645 95.3161 414.422 96.6127H404.631L405.905 90.644ZM421.329 102.447H420.122C418.826 102.447 417.708 102.626 416.769 102.984C415.875 103.297 415.137 103.721 414.556 104.258C414.019 104.794 413.617 105.398 413.349 106.069C413.081 106.739 412.946 107.41 412.946 108.081C412.946 109.154 413.215 109.958 413.751 110.495C414.332 111.031 415.003 111.3 415.763 111.3C416.702 111.3 417.619 110.964 418.513 110.294C419.452 109.623 420.033 108.729 420.256 107.611L421.329 102.447ZM443.511 88.1627H454.443L455.448 93.1925H455.918C456.946 91.5829 458.265 90.2193 459.875 89.1016C461.484 87.9839 463.608 87.425 466.246 87.425C466.425 87.425 466.693 87.4473 467.05 87.4921C467.453 87.4921 467.878 87.5591 468.325 87.6932C468.816 87.7827 469.308 87.9391 469.8 88.1627C470.337 88.3415 470.851 88.6098 471.343 88.9675L468.392 102.783H461.082C460.992 100.011 460.747 98.0881 460.344 97.0151C459.942 95.8973 459.293 95.3385 458.399 95.3385C457.952 95.3385 457.46 95.4503 456.924 95.6738C456.432 95.8526 455.918 96.2774 455.381 96.948L451.089 117H437.408L443.511 88.1627ZM485.117 103.52C484.938 104.504 484.804 105.443 484.715 106.337C484.67 107.231 484.648 108.036 484.648 108.751C484.648 109.154 484.67 109.601 484.715 110.092C484.76 110.584 484.849 111.054 484.983 111.501C485.162 111.903 485.386 112.261 485.654 112.574C485.967 112.842 486.391 112.976 486.928 112.976C487.33 112.976 487.777 112.842 488.269 112.574C488.806 112.306 489.32 111.926 489.812 111.434C490.348 110.942 490.84 110.338 491.287 109.623C491.779 108.908 492.159 108.103 492.427 107.209H503.426L501.682 114.385C500.788 114.966 499.759 115.458 498.597 115.86C497.435 116.262 496.205 116.598 494.909 116.866C493.612 117.089 492.293 117.246 490.952 117.335C489.611 117.469 488.336 117.537 487.129 117.537C484.894 117.537 482.815 117.335 480.892 116.933C478.97 116.531 477.293 115.838 475.863 114.854C474.432 113.87 473.292 112.574 472.442 110.964C471.638 109.31 471.235 107.276 471.235 104.862C471.235 102.671 471.57 100.525 472.241 98.4234C472.956 96.3221 474.119 94.4667 475.728 92.8571C477.383 91.2029 479.573 89.884 482.301 88.9004C485.073 87.9168 488.515 87.425 492.628 87.425C497.099 87.425 500.452 88.118 502.688 89.504C504.968 90.8899 506.108 93.0583 506.108 96.0091C506.108 97.2163 505.929 98.5352 505.572 99.9659C505.214 101.352 504.677 102.537 503.962 103.52H485.117ZM494.037 95.5397C494.037 94.1537 493.813 93.2148 493.366 92.723C492.919 92.2312 492.382 91.9853 491.757 91.9853C491.041 91.9853 490.371 92.2312 489.745 92.723C489.163 93.1701 488.627 93.796 488.135 94.6008C487.643 95.3608 487.196 96.255 486.794 97.2833C486.391 98.2669 486.056 99.3176 485.788 100.435H493.433C493.523 99.8988 493.612 99.3399 493.701 98.7587C493.791 98.2669 493.858 97.7304 493.903 97.1492C493.992 96.568 494.037 96.0315 494.037 95.5397Z" fill="#272424"/>
</svg>
