<svg width="1440" height="1523" viewBox="0 0 1440 1523" fill="none" xmlns="http://www.w3.org/2000/svg">
<rect width="1440" height="1522" fill="#C00008"/>
<mask id="mask0_0_1" style="mask-type:alpha" maskUnits="userSpaceOnUse" x="-1" y="0" width="1441" height="1523">
<rect x="-1" width="1441" height="1523" fill="#D9D9D9"/>
</mask>
<g mask="url(#mask0_0_1)">
<g opacity="0.1">
<rect width="180.589" height="2508.27" transform="matrix(0.653171 0.75721 -0.653171 0.75721 710.328 32.4358)" fill="#555555"/>
<rect width="180.589" height="2692.41" transform="matrix(0.653171 0.75721 -0.653171 0.75721 1150.87 -107)" fill="#555555"/>
<rect width="180.589" height="2590.4" transform="matrix(0.653171 0.75721 -0.653171 0.75721 1404.5 -29.7524)" fill="#555555"/>
<rect width="180.589" height="2347.12" transform="matrix(0.653171 0.75721 -0.653171 0.75721 1565.86 154.456)" fill="#555555"/>
<rect width="180.589" height="2508.01" transform="matrix(0.653171 0.75721 -0.653171 0.75721 1861.16 169.467)" fill="#555555"/>
<rect width="180.589" height="2508.01" transform="matrix(0.653171 0.75721 -0.653171 0.75721 2200.16 169.467)" fill="#555555"/>
</g>
</g>
<g filter="url(#filter0_d_0_1)">
<path d="M1440 0V226.5L762.5 658.5L0 820.5V0H1440Z" fill="white"/>
</g>
<defs>
<filter id="filter0_d_0_1" x="-18" y="-14" width="1476" height="856.5" filterUnits="userSpaceOnUse" color-interpolation-filters="sRGB">
<feFlood flood-opacity="0" result="BackgroundImageFix"/>
<feColorMatrix in="SourceAlpha" type="matrix" values="0 0 0 0 0 0 0 0 0 0 0 0 0 0 0 0 0 0 127 0" result="hardAlpha"/>
<feOffset dy="4"/>
<feGaussianBlur stdDeviation="9"/>
<feComposite in2="hardAlpha" operator="out"/>
<feColorMatrix type="matrix" values="0 0 0 0 0 0 0 0 0 0 0 0 0 0 0 0 0 0 0.25 0"/>
<feBlend mode="normal" in2="BackgroundImageFix" result="effect1_dropShadow_0_1"/>
<feBlend mode="normal" in="SourceGraphic" in2="effect1_dropShadow_0_1" result="shape"/>
</filter>
</defs>
</svg>
