<svg width="24" height="25" viewBox="0 0 24 25" fill="none" xmlns="http://www.w3.org/2000/svg">
<path fill-rule="evenodd" clip-rule="evenodd" d="M12 2.46045C15.87 2.46045 19 5.62112 19 9.52905C19 14.8305 12 22.6565 12 22.6565C12 22.6565 5 14.8305 5 9.52905C5 5.62112 8.13 2.46045 12 2.46045ZM7 9.52905C7 12.407 9.92 16.8097 12 19.5059C14.12 16.7895 17 12.4373 17 9.52905C17 6.742 14.76 4.48005 12 4.48005C9.24 4.48005 7 6.742 7 9.52905ZM12 12.0536C10.6193 12.0536 9.5 10.9233 9.5 9.52905C9.5 8.13481 10.6193 7.00455 12 7.00455C13.3807 7.00455 14.5 8.13481 14.5 9.52905C14.5 10.9233 13.3807 12.0536 12 12.0536Z" fill="#272424"/>
</svg>
